<svg version="1.1" viewBox="0 0 132 132" xmlns="http://www.w3.org/2000/svg">
 <rect x="5.86" y="19.1" width="118" height="94" fill="#fff" stroke-width="12.6"/>
 <path d="m12 5c-10.1 4.69-8.52 17.8-8.53 27-0.04 21.8-9.48 72.7 3.12 90.9 5.88 8.49 19.7 6.39 28.6 6.4 23.6 9e-3 63.7 8.02 85.2-1.95 10.1-4.69 8.52-17.8 8.53-27 0.04-21.8 9.48-72.7-3.12-90.9-5.88-8.49-18.2-6.39-27.2-6.4-23.6-0.0091-65.2-8.02-86.6 1.95m70.2 82.8c2.83-13.6 18-46.8 4.22-56 4.8-14.4 22.1-11.5 34.4-7.89-15.4 22.6-20.8 37.3-28.1 68.4-1.62 6.92-4.4 19.1-13.6 16.4-16.2-4.69-19.6-50.1-30.7-62.6l-11.5 50.5h8.71c-2.59 11.7-21.8 15.9-32.9 11.1 17-7.93 21.5-54.1 28.8-73.2l-10.6-2.63c3.59-10.8 22.9-14.6 27.2-6.3 8.43 16.3 10.4 41.7 24.1 62.3z" fill="#239ded"/>
</svg>
